<svg fill="#6D7A88" height="20" viewBox="0 0 20 20" width="20" xmlns="http://www.w3.org/2000/svg">
  <path d="m10.5999 2.50002c0-.33137-.2686-.6-.6-.6-.33137 0-.6.26863-.6.6v6.05134l-4.27896-4.27897c-.23432-.23431-.61422-.23431-.84853 0-.23432.23432-.23432.61421 0 .84853l4.27905 4.27905h-6.05156c-.33137 0-.6.26863-.6.60001 0 .33132.26863.60002.6.60002h6.0517l-4.27909 4.2791c-.23431.2343-.23431.6142 0 .8485.23432.2343.61422.2343.84853 0l4.27886-4.2789v6.0513c0 .3314.26863.6.6.6.3314 0 .6-.2686.6-.6v-6.0516l4.2791 4.2791c.2343.2343.6142.2343.8485 0 .2344-.2343.2344-.6142 0-.8485l-4.279-4.279h6.0514c.3314 0 .6-.2687.6-.60002 0-.33138-.2686-.60001-.6-.60001h-6.0512l4.2789-4.27898c.2344-.23432.2344-.61422 0-.84853-.2343-.23431-.6142-.23431-.8485 0l-4.2792 4.27921z" fill="#6D7A88"/>
</svg>